#N canvas 1280 0 1265 954 12;
#X declare -lib mrpeach;
#X obj 387 1017 cnv 15 100 40 empty empty empty 20 12 0 14 -4034 -66577
0;
#X msg 167 354 disconnect;
#X obj 416 1166 tgl 15 0 empty empty 1=connected 20 8 0 8 -4034 -257985
-1 0 1;
#X obj 601 1124 routeOSC;
#X text 522 1123 see also:;
#X text 512 1059 bundle depth;
#X obj 371 312 cnv 15 380 30 empty empty empty 20 12 0 14 -24198 -66577
0;
#X text 683 1123 and http://opensoundcontrol.org/cnmat;
#X obj 504 1151 packOSCstream;
#X text 469 1150 see:;
#X text 604 1151 for a way to send OSC over TCP or serial connections.
;
#X text 11 1153 2009_06_08 Martin Peach;
#X obj 416 1131 tcpsend;
#X obj 333 580 l2s;
#X obj 500 578 l2s;
#X msg 334 549 list Session_Name;
#X msg 501 547 list My Session Title;
#X obj 686 577 l2s;
#X msg 687 546 list Author Name;
#X obj 416 1030 packOSC;
#X floatatom 462 1059 5 0 0 0 - - -;
#X obj 309 687 t b b b b b;
#X msg 160 873 ];
#X msg 780 734 symbol Mean;
#X msg 559 731 symbol Slider;
#X msg 331 733 symbol Velocity;
#X msg 210 737 ];
#X obj 336 656 s announcePack;
#X obj 504 653 s announcePack;
#X obj 688 653 s announcePack;
#X obj 334 809 s announcePack;
#X obj 563 806 s announcePack;
#X obj 782 810 s announcePack;
#X obj 207 777 s announcePack;
#X obj 162 913 s announcePack;
#X obj 416 964 r announcePack;
#X msg 168 319 connect localhost 7010;
#X obj 289 415 t b b b b;
#X obj 860 492 s announcePack;
#X obj 158 825 del 10;
#X obj 158 788 t b;
#X obj 1157 322 import mrpeach;
#X msg 865 434 [;
#X msg 688 614 /a2r/announce/Author \$1;
#X msg 502 616 /a2r/announce/Title \$1;
#X msg 333 618 /a2r/announce/Name \$1;
#X msg 782 770 /a2r/announce/Sensor/Statistics \$1;
#X msg 561 769 /a2r/announce/Sensor/Type \$1;
#X msg 331 771 /a2r/announce/Sensor/Name \$1;
#X msg 951 705 [;
#X obj 952 734 s announcePack;
#X text 391 320 <- First connect;
#X obj 370 373 cnv 15 380 30 empty empty empty 20 12 0 14 -24198 -66577
0;
#X obj 373 383 bng 15 250 50 0 empty empty empty 17 7 0 10 -262144
-1 -1;
#X text 390 381 <- Then click here to send an announcement bundle;
#X obj 335 481 t b b b b b;
#X msg 899 547 /a2r/announce/Port 7060;
#X obj 899 583 s announcePack;
#X obj 1404 416 udpreceive 7060;
#X obj 1692 478 unpack 0 0 0 0;
#X floatatom 1691 536 5 0 0 0 - - -;
#X floatatom 1753 536 5 0 0 0 - - -;
#X floatatom 1819 534 5 0 0 0 - - -;
#X floatatom 1879 533 5 0 0 0 - - -;
#X obj 1399 480 unpackOSC;
#X obj 1399 538 routeOSC /a2r;
#X obj 1426 594 routeOSC /Session_Name;
#X obj 1466 644 routeOSC /Velocity;
#X floatatom 1341 784 5 0 0 0 - - -;
#X obj 1245 585 print osc;
#X floatatom 1563 785 5 0 0 0 - - -;
#X obj 1460 721 routeOSC /X /Y;
#X connect 1 0 12 0;
#X connect 12 0 2 0;
#X connect 13 0 45 0;
#X connect 14 0 44 0;
#X connect 15 0 13 0;
#X connect 16 0 14 0;
#X connect 17 0 43 0;
#X connect 18 0 17 0;
#X connect 19 0 12 0;
#X connect 19 1 20 0;
#X connect 21 0 26 0;
#X connect 21 1 25 0;
#X connect 21 2 24 0;
#X connect 21 3 23 0;
#X connect 21 4 49 0;
#X connect 22 0 34 0;
#X connect 23 0 46 0;
#X connect 24 0 47 0;
#X connect 25 0 48 0;
#X connect 26 0 33 0;
#X connect 26 0 40 0;
#X connect 35 0 19 0;
#X connect 36 0 12 0;
#X connect 37 1 21 0;
#X connect 37 2 55 0;
#X connect 37 3 42 0;
#X connect 39 0 22 0;
#X connect 40 0 39 0;
#X connect 42 0 38 0;
#X connect 43 0 29 0;
#X connect 44 0 28 0;
#X connect 45 0 27 0;
#X connect 46 0 32 0;
#X connect 47 0 31 0;
#X connect 48 0 30 0;
#X connect 49 0 50 0;
#X connect 53 0 37 0;
#X connect 55 0 15 0;
#X connect 55 1 16 0;
#X connect 55 2 18 0;
#X connect 55 4 56 0;
#X connect 56 0 57 0;
#X connect 58 0 64 0;
#X connect 58 1 59 0;
#X connect 59 0 60 0;
#X connect 59 1 61 0;
#X connect 59 2 62 0;
#X connect 59 3 63 0;
#X connect 64 0 65 0;
#X connect 64 0 69 0;
#X connect 65 0 66 0;
#X connect 66 0 67 0;
#X connect 67 0 71 0;
#X connect 71 0 68 0;
#X connect 71 1 70 0;
